# xmcd
#
# Track frame offsets:
#	152
#	14412
#	29157
#	42927
#	55812
#	69923
#	84366
#	97678
#	111807
#	125269
#	138884
#	153822
#	167342
#	182034
#	196304
#	210512
#	224881
#	237816
#	250750
#	263775
#	277060
#	290333
#	302561
#	315403
#	328611
#	341970
#
# Disc length: 4723 seconds
#
# Revision: 1
# Processed by: cddbd v1.5.1PL2 Copyright (c) Steve Scherf et al.
# Submitted via: audiograbber 1.83.01
#
DISCID=6e12711a
DTITLE=Charley Patton - Voice of the Delta [CD3]
DYEAR=2004
DGENRE=Blues
TTITLE0=My Black Mama, Pt. 1
TTITLE1=My Black Mama, Pt. 2
TTITLE2=Preachin' the Blues, Pt. 1
TTITLE3=Preachin' the Blues, Pt. 2
TTITLE4=Dry Spell Blues, Pt. 1
TTITLE5=Dry Spell Blues, Pt. 2
TTITLE6=Walkin' Blues
TTITLE7=M and O Blues
TTITLE8=Future Blues
TTITLE9=All night long blues [Take 2]
TTITLE10=Dry well blues
TTITLE11=Some summer day [Part 1]
TTITLE12=Moon going down
TTITLE13=Bird nest bound
TTITLE14=Jersey bull blues
TTITLE15=High sheriff blues
TTITLE16=Stone pony blues
TTITLE17=Yellow bee
TTITLE18=Mind reader blues
TTITLE19=34 blues
TTITLE20=Love my stuff
TTITLE21=Revenue man blues
TTITLE22=Oh death
TTITLE23=Troubled 'bout my mother
TTITLE24=Poor me
TTITLE25=Hang it on the wall
EXTD=
EXTT0=SON HOUSE
EXTT1=SON HOUSE
EXTT2=SON HOUSE
EXTT3=SON HOUSE
EXTT4=SON HOUSE
EXTT5=SON HOUSE
EXTT6=SON HOUSE
EXTT7=WILLIE BROWN
EXTT8=WILLIE BROWN
EXTT9=LOUISE JOHNSON
EXTT10=
EXTT11=
EXTT12=
EXTT13=
EXTT14=
EXTT15=
EXTT16=
EXTT17=BERTHA LEE
EXTT18=BERTHA LEE
EXTT19=
EXTT20=
EXTT21=
EXTT22=PATTON and LEE
EXTT23=PATTON and LEE
EXTT24=
EXTT25=
PLAYORDER=
